<?xml version="1.0" encoding="UTF-8" standalone="no"?>
<!-- Created with Inkscape (http://www.inkscape.org/) -->

<svg
   width="72.291725mm"
   height="72.291725mm"
   viewBox="0 0 256.15178 256.15178"
   id="svg4921"
   version="1.1"
   inkscape:version="1.2.2 (b0a8486, 2022-12-01)"
   sodipodi:docname="LBUlogo01.svg"
   xmlns:inkscape="http://www.inkscape.org/namespaces/inkscape"
   xmlns:sodipodi="http://sodipodi.sourceforge.net/DTD/sodipodi-0.dtd"
   xmlns="http://www.w3.org/2000/svg"
   xmlns:svg="http://www.w3.org/2000/svg"
   xmlns:rdf="http://www.w3.org/1999/02/22-rdf-syntax-ns#"
   xmlns:cc="http://creativecommons.org/ns#"
   xmlns:dc="http://purl.org/dc/elements/1.1/">
  <defs
     id="defs4923" />
  <sodipodi:namedview
     id="base"
     pagecolor="#ffffff"
     bordercolor="#666666"
     borderopacity="1.0"
     inkscape:pageopacity="0.0"
     inkscape:pageshadow="2"
     inkscape:zoom="1.335697"
     inkscape:cx="119.78764"
     inkscape:cy="132.14074"
     inkscape:document-units="px"
     inkscape:current-layer="layer1"
     showgrid="false"
     fit-margin-top="20"
     fit-margin-left="20"
     fit-margin-bottom="20"
     fit-margin-right="20"
     inkscape:window-width="1326"
     inkscape:window-height="847"
     inkscape:window-x="114"
     inkscape:window-y="25"
     inkscape:window-maximized="0"
     inkscape:showpageshadow="2"
     inkscape:pagecheckerboard="0"
     inkscape:deskcolor="#d1d1d1">
    <inkscape:grid
       type="xygrid"
       id="grid303"
       originx="128.07589"
       originy="128.07589"
       color="#615549"
       opacity="0.13333333"
       empcolor="#0081a3"
       empopacity="0.34901961"
       spacingy="6.5624997"
       spacingx="6.5624997"
       enabled="true" />
  </sodipodi:namedview>
  <metadata
     id="metadata4926">
    <rdf:RDF>
      <cc:Work
         rdf:about="">
        <dc:format>image/svg+xml</dc:format>
        <dc:type
           rdf:resource="http://purl.org/dc/dcmitype/StillImage" />
      </cc:Work>
    </rdf:RDF>
  </metadata>
  <g
     inkscape:label="Layer 1"
     inkscape:groupmode="layer"
     id="layer1"
     transform="translate(-70.159103,-400.97751)">
    <path
       style="display:inline;fill:#000000;fill-opacity:1;fill-rule:evenodd;stroke:none;stroke-width:0.1;stroke-linecap:butt;stroke-linejoin:miter;stroke-miterlimit:4;stroke-dasharray:none;stroke-opacity:1"
       d="m 216.5299,540.15915 c 4.73169,-0.004 6.48955,-5.71492 11.75188,-6.42486 2.5995,6.59129 -0.51473,10.28902 -5.08225,12.7698 -4.56756,2.48081 -10.03123,1.66698 -13.32062,-3.65907 -1.92128,-2.95649 1.29391,-4.64305 6.65099,-2.68587 z"
       id="path4213"
       inkscape:connector-curvature="0"
       sodipodi:nodetypes="cczcc"
       inkscape:export-xdpi="125.023"
       inkscape:export-ydpi="125.023" />
    <path
       style="display:inline;fill:#000000;fill-opacity:1;fill-rule:evenodd;stroke:#000000;stroke-width:1.875;stroke-linecap:round;stroke-linejoin:round;stroke-dasharray:none;stroke-opacity:1"
       d="m 203.48575,496.89307 c 0,0 -4.23653,18.03336 -0.25159,18.03336 3.98494,0 0.25159,-18.03336 0.25159,-18.03336 z"
       id="path4749"
       inkscape:connector-curvature="0"
       sodipodi:nodetypes="csc"
       inkscape:export-xdpi="125.023"
       inkscape:export-ydpi="125.023" />
    <path
       style="display:inline;fill:#000000;fill-opacity:1;fill-rule:evenodd;stroke:#000000;stroke-width:1.875;stroke-linecap:round;stroke-linejoin:round;stroke-dasharray:none;stroke-opacity:1"
       d="m 176.91746,502.99734 c 0,0 6.02392,16.94119 9.57282,15.12876 3.54891,-1.81245 -9.57282,-15.12876 -9.57282,-15.12876 z"
       id="path4749-2"
       inkscape:connector-curvature="0"
       sodipodi:nodetypes="csc"
       inkscape:export-xdpi="125.023"
       inkscape:export-ydpi="125.023" />
    <path
       style="display:inline;fill:#000000;fill-opacity:1;fill-rule:evenodd;stroke:#000000;stroke-width:1.875;stroke-linecap:round;stroke-linejoin:round;stroke-dasharray:none;stroke-opacity:1"
       d="m 157.07464,519.0007 c 0,0 13.94916,12.62556 16.45499,9.52709 2.50585,-3.09847 -16.45499,-9.52709 -16.45499,-9.52709 z"
       id="path4749-23"
       inkscape:connector-curvature="0"
       sodipodi:nodetypes="csc"
       inkscape:export-xdpi="125.023"
       inkscape:export-ydpi="125.023" />
    <path
       style="display:inline;fill:#000000;fill-opacity:1;fill-rule:evenodd;stroke:#000000;stroke-width:1.875;stroke-linecap:round;stroke-linejoin:round;stroke-dasharray:none;stroke-opacity:1"
       d="m 227.75352,504.77669 c 0,0 -13.30448,11.03956 -9.96223,13.2096 3.34225,2.17004 9.96223,-13.2096 9.96223,-13.2096 z"
       id="path4749-0"
       inkscape:connector-curvature="0"
       sodipodi:nodetypes="csc"
       inkscape:export-xdpi="125.023"
       inkscape:export-ydpi="125.023" />
    <path
       style="display:inline;fill:#000000;fill-opacity:1;fill-rule:evenodd;stroke:#000000;stroke-width:1.875;stroke-linecap:round;stroke-linejoin:round;stroke-dasharray:none;stroke-opacity:1"
       d="m 249.79778,519.77373 c 0,0 -17.77238,4.00906 -16.09701,7.6247 1.67537,3.61564 16.09701,-7.6247 16.09701,-7.6247 z"
       id="path4749-1"
       inkscape:connector-curvature="0"
       sodipodi:nodetypes="csc"
       inkscape:export-xdpi="125.023"
       inkscape:export-ydpi="125.023" />
    <g
       aria-label="LOCAL BAR
UNION"
       transform="matrix(1.009027,0,0,0.99105376,0,-3.9193086)"
       id="text4138"
       style="font-size:12.7809px;line-height:0%;font-family:'Poiret One';-inkscape-font-specification:'Poiret One';text-align:center;letter-spacing:0px;word-spacing:0px;text-anchor:middle;stroke-width:9.375">
      <path
         d="m 130.67927,436.81392 v 20.04942 h 6.45141 v 0.80643 h -7.36906 v -20.85585 z"
         style="font-size:27.8078px;line-height:104%;stroke:#000000;stroke-width:1.875;stroke-dasharray:none;stroke-opacity:1"
         id="path1869" />
      <path
         d="m 146.50186,458.03127 q -4.31021,0 -7.4803,-3.25351 -3.14228,-3.25351 -3.14228,-7.59153 0,-4.36583 3.1979,-7.53592 3.19789,-3.19789 7.67495,-3.19789 4.47705,0 7.64714,3.17009 3.17009,3.17009 3.17009,7.56372 0,4.36582 -3.14228,7.61934 -3.14228,3.2257 -7.50811,3.2257 z m 10.14984,-10.78943 q 0,-4.11555 -2.91981,-7.03537 -2.89202,-2.94763 -7.00757,-2.94763 -4.08775,0 -7.00757,2.94763 -2.91981,2.91982 -2.91981,7.03537 0,4.08775 2.91981,7.03538 2.91982,2.94762 7.00757,2.94762 4.08775,0 7.00757,-2.94762 2.91981,-2.94763 2.91981,-7.03538 z"
         style="font-size:27.8078px;line-height:104%;stroke:#000000;stroke-width:1.875;stroke-dasharray:none;stroke-opacity:1"
         id="path1871" />
      <path
         d="m 171.05612,457.97566 h -0.30589 q -2.8642,0 -5.3391,-1.50163 -2.47489,-1.50162 -3.9209,-3.97651 -1.4182,-2.5027 -1.4182,-5.31129 0,-4.42144 3.1979,-7.59153 3.1979,-3.1979 7.64715,-3.1979 2.97543,0 5.64498,1.55724 v 1.02889 q -2.61393,-1.7797 -5.64498,-1.7797 -4.08775,0 -7.00757,2.94763 -2.91982,2.91981 -2.91982,7.03537 0,4.08775 2.91982,7.03537 2.91982,2.94763 7.00757,2.94763 3.03105,0 5.64498,-1.7797 v 1.02889 q -2.53051,1.55724 -5.50594,1.55724 z"
         style="font-size:27.8078px;line-height:104%;stroke:#000000;stroke-width:1.875;stroke-dasharray:none;stroke-opacity:1"
         id="path1873" />
      <path
         d="m 189.46488,436.31338 10.42792,21.35639 h -0.97327 l -3.94871,-7.95303 h -11.15093 l -3.89309,7.95303 h -0.86204 z m -0.0834,1.91874 -5.20005,10.67819 h 10.45573 z"
         style="font-size:27.8078px;line-height:104%;stroke:#000000;stroke-width:1.875;stroke-dasharray:none;stroke-opacity:1"
         id="path1875" />
      <path
         d="m 203.73023,436.81392 v 20.04942 h 6.45141 v 0.80643 h -7.36907 v -20.85585 z"
         style="font-size:27.8078px;line-height:104%;stroke:#000000;stroke-width:1.875;stroke-dasharray:none;stroke-opacity:1"
         id="path1877" />
      <path
         d="m 222.55603,436.81392 h 0.88985 q 1.80751,0 3.03105,1.14012 1.22355,1.11231 1.22355,2.8642 0,1.0567 -0.6952,2.16901 -0.66739,1.0845 -1.58504,1.4182 2.1412,0.52835 3.5594,2.28024 1.41819,1.75189 1.41819,4.42144 0,2.64174 -2.02997,4.61609 -2.02997,1.94655 -4.92198,1.94655 h -0.88985 z m 0.88985,8.09207 v 11.98516 h 0.22247 q 2.39147,0 4.11555,-1.7797 1.75189,-1.7797 1.75189,-4.22678 0,-2.44709 -1.72408,-4.19898 -1.72409,-1.7797 -4.14336,-1.7797 z m 0,-7.31345 v 6.56264 h 0.22247 q 1.25135,0 2.19681,-1.00108 0.97327,-1.02889 0.97327,-2.33586 0,-1.33477 -0.94546,-2.28024 -0.94547,-0.94546 -2.22462,-0.94546 z"
         style="font-size:27.8078px;line-height:104%;stroke:#000000;stroke-width:1.875;stroke-dasharray:none;stroke-opacity:1"
         id="path1879" />
      <path
         d="m 242.46639,436.31338 10.42792,21.35639 h -0.97327 l -3.94871,-7.95303 h -11.15092 l -3.8931,7.95303 h -0.86204 z m -0.0834,1.91874 -5.20006,10.67819 h 10.45573 z"
         style="font-size:27.8078px;line-height:104%;stroke:#000000;stroke-width:1.875;stroke-dasharray:none;stroke-opacity:1"
         id="path1881" />
      <path
         d="m 255.81408,436.81392 h 1.19574 q 2.69735,0 4.72732,2.00216 2.05778,1.97435 2.05778,4.67171 0,2.66955 -2.08558,4.6439 -2.08559,1.97436 -4.47706,1.97436 h -0.19465 l 7.17441,7.56372 h -1.19574 l -6.31237,-6.61826 v 6.61826 h -0.88985 z m 0.88985,12.4857 h 0.50054 q 2.25243,0 3.97652,-1.72408 1.72408,-1.72409 1.72408,-4.08775 0,-2.36366 -1.7797,-4.11555 -1.7797,-1.75189 -4.05994,-1.75189 h -0.3615 z"
         style="font-size:27.8078px;line-height:104%;stroke:#000000;stroke-width:1.875;stroke-dasharray:none;stroke-opacity:1"
         id="path1883" />
      <path
         d="m 122.46991,497.17808 h -0.3972 q -3.65417,0 -6.19621,-2.54204 -2.50231,-2.54203 -2.50231,-6.3948 v -21.40871 h 1.31073 v 21.36899 q 0,3.37614 2.18456,5.60042 2.18457,2.22428 5.40183,2.22428 3.21726,0 5.3621,-2.18456 2.18457,-2.22428 2.18457,-5.64014 v -21.36899 h 1.31073 v 21.32927 q 0,3.89249 -2.54203,6.47424 -2.50232,2.54204 -6.11677,2.54204 z"
         style="font-size:39.7193px;line-height:104%;letter-spacing:11.9821px;stroke:#000000;stroke-width:1.875;stroke-dasharray:none;stroke-opacity:1"
         id="path1885" />
      <path
         d="m 170.99369,466.83253 h 1.15186 v 30.22639 l -21.92505,-26.9694 v 26.53249 h -1.15186 v -30.22639 l 21.92505,26.92969 z"
         style="font-size:39.7193px;line-height:104%;letter-spacing:11.9821px;stroke:#000000;stroke-width:1.875;stroke-dasharray:none;stroke-opacity:1"
         id="path1887" />
      <path
         d="m 190.2841,466.83253 h 1.31074 v 29.78948 h -1.31074 z"
         style="font-size:39.7193px;line-height:104%;letter-spacing:11.9821px;stroke:#000000;stroke-width:1.875;stroke-dasharray:none;stroke-opacity:1"
         id="path1889" />
      <path
         d="m 223.71458,497.13836 q -6.15649,0 -10.68449,-4.64716 -4.48828,-4.64716 -4.48828,-10.84337 0,-6.23593 4.56772,-10.76393 4.56772,-4.56772 10.96252,-4.56772 6.39481,0 10.92281,4.528 4.528,4.528 4.528,10.80365 0,6.23593 -4.48828,10.88309 -4.48828,4.60744 -10.72421,4.60744 z m 14.49754,-15.41109 q 0,-5.87845 -4.17052,-10.04898 -4.13081,-4.21025 -10.00927,-4.21025 -5.83873,0 -10.00926,4.21025 -4.17053,4.17053 -4.17053,10.04898 0,5.83874 4.17053,10.04898 4.17053,4.21025 10.00926,4.21025 5.83874,0 10.00927,-4.21025 4.17052,-4.21024 4.17052,-10.04898 z"
         style="font-size:39.7193px;line-height:104%;letter-spacing:11.9821px;stroke:#000000;stroke-width:1.875;stroke-dasharray:none;stroke-opacity:1"
         id="path1891" />
      <path
         d="m 278.19629,466.83253 h 1.15186 v 30.22639 l -21.92506,-26.9694 v 26.53249 h -1.15186 v -30.22639 l 21.92506,26.92969 z"
         style="font-size:39.7193px;line-height:104%;letter-spacing:11.9821px;fill:none;fill-opacity:1;stroke:#000000;stroke-width:1.875;stroke-dasharray:none;stroke-opacity:1"
         id="path1893" />
    </g>
    <path
       style="fill:none;fill-rule:evenodd;stroke:#000000;stroke-width:1.99247;stroke-linecap:round;stroke-linejoin:round;stroke-miterlimit:4;stroke-dasharray:none;stroke-opacity:1"
       d="m 197.84537,518.94724 4.87639,3.15274 -8.92326,16.86299 c 2.04498,2.77954 2.90594,9.89289 1.3188,12.40161 -1.7083,2.70014 -17.38306,28.58258 -22.52674,34.12205 -4.41504,4.75473 -22.62177,-7.01653 -19.6875,-12.72864 3.47375,-6.76228 19.9129,-32.00723 21.43535,-34.59483 1.62137,-2.75567 8.50028,-4.8287 11.92732,-4.1868 z"
       id="path4196"
       inkscape:connector-curvature="0"
       sodipodi:nodetypes="cccsssscc"
       inkscape:export-xdpi="125.023"
       inkscape:export-ydpi="125.023" />
    <path
       style="fill:none;fill-rule:evenodd;stroke:#000000;stroke-width:1.99247;stroke-linecap:round;stroke-linejoin:round;stroke-miterlimit:4;stroke-dasharray:none;stroke-opacity:1"
       d="m 211.99055,574.67795 -3.08414,17.44649 c -2.14982,1.74465 -9.1284,1.74465 -11.49851,0 l -2.86383,-17.44649"
       id="path4200"
       inkscape:connector-curvature="0"
       sodipodi:nodetypes="cccc"
       inkscape:export-xdpi="125.023"
       inkscape:export-ydpi="125.023" />
    <g
       id="g4204"
       transform="matrix(1.5331111,-0.8326845,0.8326845,1.5331111,-657.23668,-61.210563)"
       inkscape:export-xdpi="125.023"
       inkscape:export-ydpi="125.023">
      <path
         sodipodi:nodetypes="cccccczzz"
         inkscape:connector-curvature="0"
         id="path4198"
         d="m 284.99999,536.97102 c 10e-6,6.39118 -1.20783,10.48302 -7.15932,11.28499 -0.23432,6.87577 -0.29084,3.88842 0.14474,11.96415 l -0.98384,-6e-5 c 0.34186,-7.74781 -0.0522,-4.47029 -0.22634,-11.97182 -5.98307,-0.79424 -6.77523,-4.88608 -6.77524,-11.27726 m 12.09823,23.27464 c 2e-5,3.06199 -9.13688,3.15706 -9.19642,0.10233 -0.0595,-3.05473 9.1964,-3.16432 9.19642,-0.10233 z"
         style="fill:none;fill-rule:evenodd;stroke:#000000;stroke-width:1.14205;stroke-linecap:round;stroke-linejoin:round;stroke-miterlimit:4;stroke-dasharray:none;stroke-opacity:1" />
      <ellipse
         style="opacity:1;fill:none;fill-opacity:1;fill-rule:nonzero;stroke:#000000;stroke-width:1.14205;stroke-linecap:round;stroke-linejoin:round;stroke-miterlimit:4;stroke-dasharray:none;stroke-dashoffset:0;stroke-opacity:1"
         id="path4210"
         cx="277.5"
         cy="537.04517"
         rx="7.5"
         ry="2" />
    </g>
    <ellipse
       style="opacity:1;fill:#000000;fill-opacity:1;fill-rule:nonzero;stroke:#000000;stroke-width:0.540465;stroke-linecap:round;stroke-linejoin:round;stroke-miterlimit:4;stroke-dasharray:none;stroke-dashoffset:0;stroke-opacity:1"
       id="path4711"
       cy="328.71118"
       cx="450.84506"
       rx="3.3433039"
       ry="2.0390205"
       transform="rotate(32.884043)"
       inkscape:export-xdpi="125.023"
       inkscape:export-ydpi="125.023" />
    <path
       style="fill:#000000;fill-opacity:1;fill-rule:evenodd;stroke:#000000;stroke-width:1.23336px;stroke-linecap:round;stroke-linejoin:round;stroke-opacity:1"
       d="m 190.49069,552.09331 c -1.47664,2.32645 -15.0895,24.58652 -19.38564,29.4542 -3.68754,4.17817 -17.07851,-4.47955 -14.48006,-9.36186 3.07622,-5.77989 16.03199,-24.96485 17.35844,-27.18769 7.25984,-0.37197 7.09216,1.76711 10.21814,0.80162 1.58565,-0.48975 2.83603,-1.62205 3.81564,-3.19814 2.62431,-4.22218 5.75505,3.3187 2.47348,9.49187 z"
       id="path4196-2"
       inkscape:connector-curvature="0"
       sodipodi:nodetypes="csscssc"
       inkscape:export-xdpi="125.023"
       inkscape:export-ydpi="125.023" />
    <ellipse
       style="opacity:1;fill:none;fill-opacity:1;fill-rule:nonzero;stroke:#000000;stroke-width:1.99247;stroke-linecap:round;stroke-linejoin:round;stroke-miterlimit:4;stroke-dasharray:none;stroke-dashoffset:0;stroke-opacity:1"
       id="path4730"
       cx="203.23616"
       cy="574.80261"
       rx="8.698101"
       ry="3.6198664"
       inkscape:export-xdpi="125.023"
       inkscape:export-ydpi="125.023" />
    <path
       style="fill:#000000;fill-opacity:1;fill-rule:evenodd;stroke:#000000;stroke-width:1.37679;stroke-linecap:round;stroke-linejoin:round;stroke-miterlimit:4;stroke-dasharray:none;stroke-opacity:1"
       d="m 208.3689,581.05031 -1.78247,9.30856 c -1.2901,1.04696 -5.47789,1.04696 -6.90018,0 l -1.78686,-9.30856 c 0,0 3.58248,-0.41368 5.3815,-0.40975 1.70149,0.004 5.08801,0.40975 5.08801,0.40975 z"
       id="path4200-6"
       inkscape:connector-curvature="0"
       sodipodi:nodetypes="ccccac"
       inkscape:export-xdpi="125.023"
       inkscape:export-ydpi="125.023" />
    <path
       style="fill:none;fill-opacity:1;fill-rule:evenodd;stroke:#000000;stroke-width:2.34375;stroke-linecap:round;stroke-linejoin:miter;stroke-dasharray:none;stroke-opacity:1"
       d="m 270.24712,494.86326 v 16.19396 c 0,0 -4.02074,-12.39473 -11.92437,-4.35221 7.90363,-8.04252 -4.26958,-11.84175 -4.26958,-11.84175 z"
       id="path4784-4"
       inkscape:connector-curvature="0"
       sodipodi:nodetypes="ccccc"
       inkscape:export-xdpi="125.023"
       inkscape:export-ydpi="125.023" />
    <path
       style="fill:none;fill-rule:evenodd;stroke:#000000;stroke-width:3.75;stroke-linecap:square;stroke-linejoin:bevel;stroke-miterlimit:4;stroke-dasharray:none;stroke-opacity:1"
       d="m 114.28776,495.29869 -1.77898,60.48568 c 0,0 39.8494,-9.96235 8.18336,39.8494 l 21.70369,19.9247"
       id="path4801"
       inkscape:connector-curvature="0"
       sodipodi:nodetypes="cccc"
       inkscape:export-xdpi="125.023"
       inkscape:export-ydpi="125.023" />
    <path
       style="fill:none;fill-rule:evenodd;stroke:#000000;stroke-width:3.75;stroke-linecap:square;stroke-linejoin:bevel;stroke-miterlimit:4;stroke-dasharray:none;stroke-opacity:1"
       d="m 283.03776,495.29869 1.42318,60.12989 c 0,0 -39.8494,-9.96235 -8.18335,39.84939 l -21.7037,19.9247"
       id="path4801-0"
       inkscape:connector-curvature="0"
       sodipodi:nodetypes="cccc"
       inkscape:export-xdpi="125.023"
       inkscape:export-ydpi="125.023" />
    <g
       aria-label="432"
       id="text4859"
       style="line-height:0%;font-family:'Poiret One';-inkscape-font-specification:'Poiret One';text-align:center;letter-spacing:9.814px;word-spacing:0px;text-anchor:middle;stroke:#000000;stroke-width:1.875;stroke-dasharray:none;stroke-opacity:1"
       transform="translate(0.78386172,7.8919305)">
      <path
         d="m 169.92438,622.79871 v -3.34903 h -12.43924 l 13.65373,-24.62088 v 23.4064 h 3.20181 v 1.21448 h -3.20181 v 3.34903 z m 0,-4.56351 v -19.17411 l -10.63592,19.17411 z"
         style="font-size:36.8025px;line-height:1.25;stroke:#000000;stroke-width:1.875;stroke-dasharray:none;stroke-opacity:1"
         id="path2094" />
      <path
         d="m 204.72727,618.7995 q 0,3.86426 -2.79699,6.58765 -2.76018,2.68658 -6.66125,2.68658 -3.90106,0 -6.69805,-2.61298 -2.76019,-2.61297 -2.76019,-6.25642 v -0.77285 h 1.14088 v 0.58884 q 0,3.34902 2.39216,5.70438 2.42896,2.31856 5.8516,2.31856 3.42263,0 5.85159,-2.31856 2.46577,-2.35536 2.46577,-5.74119 0,-2.31855 -1.25128,-4.4899 -1.21449,-2.17135 -3.20182,-3.01781 l -0.69925,-0.29442 0.66245,-0.51523 q 0.95686,-0.73605 1.4721,-1.91373 0.55203,-1.21449 0.55203,-2.46577 0,-2.24495 -1.69291,-3.90107 -1.65611,-1.65611 -4.01147,-1.65611 -2.31856,0 -4.08508,1.72972 -1.72972,1.69291 -1.80332,4.08508 h -1.17768 q 0.0736,-2.8338 2.09774,-4.82113 2.06094,-2.02414 4.93153,-2.02414 2.9074,0 4.89474,1.87693 2.02413,1.87693 2.02413,4.60031 0,2.68658 -1.95053,4.82113 2.02414,1.21448 3.23862,3.31223 1.21448,2.06094 1.21448,4.4899 z"
         style="font-size:36.8025px;line-height:1.25;stroke:#000000;stroke-width:1.875;stroke-dasharray:none;stroke-opacity:1"
         id="path2096" />
      <path
         d="m 236.65953,605.13351 q 0,-3.71706 -2.42896,-6.47725 -2.42897,-2.76018 -6.44044,-2.76018 -4.01147,0 -6.69806,2.90739 -2.64978,2.8706 -2.64978,6.99248 h -1.14087 q 0,-4.67392 3.0178,-7.80213 3.01781,-3.12821 7.50771,-3.12821 4.52671,0 7.2869,3.0546 2.76018,3.05461 2.76018,7.2501 0,6.07241 -6.51404,10.15749 l -10.01028,6.25642 h 16.41392 v 1.21449 h -20.24138 l 12.84407,-8.13336 q 6.29323,-3.97467 6.29323,-9.53184 z"
         style="font-size:36.8025px;line-height:1.25;stroke:#000000;stroke-width:1.875;stroke-dasharray:none;stroke-opacity:1"
         id="path2098" />
    </g>
    <path
       style="fill:none;fill-opacity:1;fill-rule:evenodd;stroke:#000000;stroke-width:2.34375;stroke-linecap:round;stroke-linejoin:miter;stroke-dasharray:none;stroke-opacity:1;paint-order:fill markers stroke"
       d="m 126.80885,494.93956 v 16.19396 c 0,0 4.02075,-12.39473 11.92438,-4.35221 -7.90363,-8.04252 4.26958,-11.84175 4.26958,-11.84175 z"
       id="path4784-4-5"
       inkscape:connector-curvature="0"
       sodipodi:nodetypes="ccccc"
       inkscape:export-xdpi="125.023"
       inkscape:export-ydpi="125.023" />
    <g
       inkscape:groupmode="layer"
       id="layer2"
       inkscape:label="swirls"
       style="display:none">
      <path
         sodipodi:type="spiral"
         style="fill:none;fill-rule:evenodd;stroke:#000000;stroke-width:1.875;stroke-linecap:round;stroke-linejoin:miter;stroke-miterlimit:4;stroke-dasharray:none;stroke-opacity:1"
         id="path4818"
         sodipodi:cx="270.07889"
         sodipodi:cy="450.49124"
         sodipodi:expansion="1"
         sodipodi:revolution="1.9"
         sodipodi:radius="8.6478148"
         sodipodi:argument="-18.064157"
         sodipodi:t0="0"
         d="m 270.07889,450.49124 c 0.48409,0.4841 -0.41372,0.89139 -0.8046,0.8046 -1.05926,-0.23519 -1.22955,-1.59198 -0.80459,-2.41379 0.76014,-1.47003 2.73406,-1.64224 4.02298,-0.8046 1.89153,1.22928 2.06716,3.89165 0.80459,5.63218 -1.6828,2.31984 -5.05473,2.49729 -7.24136,0.80459 -2.75166,-2.13009 -2.93013,-6.22044 -0.8046,-8.85056 2.57431,-3.18542 7.38762,-3.36451 10.45975,-0.80459 2.03729,1.69762 3.10313,4.35126 2.90917,6.98499"
         inkscape:export-xdpi="125.023"
         inkscape:export-ydpi="125.023"
         transform="translate(-20.33727,166.77324)" />
      <path
         sodipodi:type="spiral"
         style="fill:none;fill-rule:evenodd;stroke:#000000;stroke-width:1.875;stroke-linecap:round;stroke-linejoin:miter;stroke-miterlimit:4;stroke-dasharray:none;stroke-opacity:1"
         id="path4820"
         sodipodi:cx="-284.30316"
         sodipodi:cy="-452.03412"
         sodipodi:expansion="0.30000001"
         sodipodi:revolution="0.91000003"
         sodipodi:radius="5.6808462"
         sodipodi:argument="-5.7176986"
         sodipodi:t0="0"
         d="m -284.30316,-452.03412 c 3.14532,1.99608 0.27813,4.18279 -2.06589,3.25532 -2.26886,-0.89773 -2.9967,-3.72363 -1.94188,-5.79873 1.2688,-2.49606 4.47726,-3.30143 6.88016,-1.98275 1.64888,0.90488 2.71026,2.6546 2.80845,4.52616"
         transform="rotate(180,-10.168634,83.38662)"
         inkscape:export-xdpi="125.023"
         inkscape:export-ydpi="125.023" />
      <path
         sodipodi:type="spiral"
         style="fill:none;fill-rule:evenodd;stroke:#000000;stroke-width:1.875;stroke-linecap:round;stroke-linejoin:miter;stroke-miterlimit:4;stroke-dasharray:none;stroke-opacity:1"
         id="path4818-2"
         sodipodi:cx="-124.20686"
         sodipodi:cy="450.49124"
         sodipodi:expansion="1"
         sodipodi:revolution="1.9"
         sodipodi:radius="8.6478148"
         sodipodi:argument="-18.064157"
         sodipodi:t0="0"
         d="m -124.20686,450.49124 c 0.48409,0.4841 -0.41372,0.89139 -0.8046,0.8046 -1.05927,-0.23519 -1.22955,-1.59198 -0.80459,-2.41379 0.76014,-1.47003 2.73406,-1.64224 4.02297,-0.8046 1.89154,1.22928 2.06717,3.89165 0.8046,5.63218 -1.6828,2.31984 -5.05473,2.49729 -7.24136,0.80459 -2.75166,-2.13009 -2.93013,-6.22044 -0.8046,-8.85056 2.57431,-3.18542 7.38762,-3.36451 10.45975,-0.80459 2.03728,1.69762 3.10312,4.35126 2.90917,6.98499"
         transform="matrix(-0.99999999,0,0,0.99999999,22.884313,167.31718)"
         inkscape:export-xdpi="125.023"
         inkscape:export-ydpi="125.023" />
      <path
         sodipodi:type="spiral"
         style="fill:none;fill-rule:evenodd;stroke:#000000;stroke-width:1.875;stroke-linecap:round;stroke-linejoin:miter;stroke-miterlimit:4;stroke-dasharray:none;stroke-opacity:1"
         id="path4820-1"
         sodipodi:cx="109.98257"
         sodipodi:cy="-452.03412"
         sodipodi:expansion="0.30000001"
         sodipodi:revolution="0.91000003"
         sodipodi:radius="5.6808462"
         sodipodi:argument="-5.7176986"
         sodipodi:t0="0"
         d="m 109.98257,-452.03412 c 3.14532,1.99608 0.27813,4.18279 -2.06589,3.25532 -2.26886,-0.89773 -2.9967,-3.72363 -1.94188,-5.79873 1.2688,-2.49606 4.47726,-3.30143 6.88016,-1.98275 1.64888,0.90488 2.71026,2.6546 2.80845,4.52616"
         transform="matrix(0.99999999,0,0,-0.99999999,22.884313,167.31718)"
         inkscape:export-xdpi="125.023"
         inkscape:export-ydpi="125.023" />
    </g>
    <path
       style="fill:none;fill-opacity:1;stroke:#000000;stroke-width:2.34375;stroke-linecap:square;stroke-linejoin:round;stroke-dasharray:none;stroke-opacity:1;paint-order:fill markers stroke"
       d="m 119.31567,555.21785 1.5517,-60.49534"
       id="path5234"
       sodipodi:nodetypes="cc" />
    <path
       style="fill:none;fill-opacity:1;stroke:#000000;stroke-width:2.34375;stroke-linecap:square;stroke-linejoin:round;stroke-dasharray:none;stroke-opacity:1;paint-order:fill markers stroke"
       d="m 277.44153,554.7854 -0.96795,-59.9611"
       id="path5236"
       sodipodi:nodetypes="cc" />
    <path
       style="fill:none;fill-opacity:1;stroke:#000000;stroke-width:2.3437499;stroke-linecap:square;stroke-linejoin:round;stroke-dasharray:none;stroke-opacity:1;paint-order:fill markers stroke"
       d="m 125.47498,590.69237 21.18973,19.45996"
       id="path5238" />
    <path
       style="fill:none;fill-opacity:1;stroke:#000000;stroke-width:2.3437499;stroke-linecap:square;stroke-linejoin:round;stroke-dasharray:none;stroke-opacity:1;paint-order:fill markers stroke"
       d="m 271.28223,590.32814 -21.62218,19.8924"
       id="path5240" />
  </g>
  <g
     inkscape:groupmode="layer"
     id="layer3"
     inkscape:label="grid"
     style="display:none">
    <circle
       style="fill:none;fill-opacity:1;stroke:#850000;stroke-width:1.875;stroke-linecap:round;stroke-linejoin:round;stroke-dasharray:none;stroke-opacity:0.222798;paint-order:fill markers stroke"
       id="path1789"
       cx="198.235"
       cy="529.05341"
       r="127.1384"
       transform="translate(-70.159103,-400.97751)" />
    <circle
       style="fill:none;fill-opacity:1;stroke:#850000;stroke-width:1.875;stroke-linecap:square;stroke-linejoin:bevel;stroke-dasharray:none;stroke-opacity:0.222798;paint-order:fill markers stroke"
       id="path7528"
       cx="198.23499"
       cy="529.05341"
       r="104.99999"
       transform="translate(-70.159103,-400.97751)" />
    <circle
       style="fill:none;fill-opacity:1;stroke:#850000;stroke-width:1.875;stroke-linecap:square;stroke-linejoin:bevel;stroke-dasharray:none;stroke-opacity:0.222798;paint-order:fill markers stroke"
       id="path9747"
       cx="198.23499"
       cy="529.05341"
       r="72.1875"
       transform="translate(-70.159103,-400.97751)" />
    <circle
       style="fill:none;fill-opacity:1;stroke:#850000;stroke-width:1.875;stroke-linecap:square;stroke-linejoin:bevel;stroke-dasharray:none;stroke-opacity:0.222798;paint-order:fill markers stroke"
       id="path9749"
       cx="198.23499"
       cy="529.05341"
       r="39.375"
       transform="translate(-70.159103,-400.97751)" />
  </g>
</svg>
